<svg version="1.1" xmlns="http://www.w3.org/2000/svg" xmlns:xlink="http://www.w3.org/1999/xlink" width="325.83184" height="326.28807" viewBox="0,0,325.83184,326.28807"><g transform="translate(-77.08408,-9.57657)"><g data-paper-data="{&quot;isPaintingLayer&quot;:true}" fill-rule="nonzero" stroke="none" stroke-linecap="butt" stroke-linejoin="miter" stroke-miterlimit="10" stroke-dasharray="" stroke-dashoffset="0" style="mix-blend-mode: normal"><path d="M77.08408,172.49249c0,-89.97598 72.93994,-162.91592 162.91592,-162.91592c89.97598,0 162.91592,72.93994 162.91592,162.91592c0,89.97598 -72.93994,162.91592 -162.91592,162.91592c-89.97598,0 -162.91592,-72.93994 -162.91592,-162.91592z" data-paper-data="{&quot;index&quot;:null}" fill="#7fb282" stroke-width="0"/><path d="M235.71497,202.76848c0,3.6819 -3.13401,6.66666 -7,6.66666c-3.86599,0 -9.33334,-6.3181 -9.33334,-10c0,-3.6819 12.13401,-6 16,-6c3.86599,0 0.33334,5.65143 0.33334,9.33334z" data-paper-data="{&quot;index&quot;:null}" fill="#d6d6d6" stroke-width="0"/><path d="M319.4062,154.29114c0,0 -2.29903,4.71301 -4.66773,8.03002c-5.12885,7.1822 -9.84639,12.22975 -9.84639,12.22975c0,0 -0.07231,-1.64756 0.71307,-4.71776c0.8655,-3.38341 0.92148,-7.1385 0.92148,-7.1385c0,0 -3.67766,7.33988 -6.45686,10.73349c-2.50701,3.06125 -8.48609,8.73405 -8.48609,8.73405l2.03148,-9.49511c0,0 -3.95624,6.12948 -5.81627,8.87525c-2.50923,3.70411 -6.45001,7.92316 -6.42017,7.30547c0.0835,-1.72851 1.2923,-4.36848 5.49008,-15.4496c1.44511,-3.81473 3.05941,-11.55685 8.31688,-15.07489c8.14243,-5.44851 16.80717,-8.22899 21.23539,-7.6181c1.87052,0.25804 2.98512,3.58592 2.98512,3.58592z" data-paper-data="{&quot;index&quot;:null}" fill="#0f5a58" stroke-width="0"/><path d="M290.71497,192.43515c0,3.12962 -3.12419,2 -5.33333,2c-2.20914,0 -4,0.12962 -4,-3c0,-3.12962 -1.54248,-3.33333 0.66666,-3.33333c2.20914,0 8.66667,1.20371 8.66667,4.33333z" data-paper-data="{&quot;index&quot;:null}" fill="#802a2a" stroke-width="0"/><path d="M237.71497,193.10182c0,0.37195 0.72101,4.69245 -0.4815,4.77135c-4.1598,0.27291 -9.0998,2.22865 -11.85184,2.22865c-3.6819,0 -4.33333,-3.66667 -4.33333,-3.66667c0,0 5.8181,-3 9.5,-3c3.6819,0 7.16667,-1.80609 7.16667,-0.33333z" data-paper-data="{&quot;index&quot;:null}" fill="#802a2a" stroke-width="0"/><path d="M228.01041,214.74187c0,0 8,-12.26467 8,-19c0,-7.6483 -4.5,-9 -4.5,-9l56.5,-17.5c0,0 -4.34851,13.33905 -4.55895,19.58228c-0.27306,8.10079 0.05895,25.91772 0.05895,25.91772z" data-paper-data="{&quot;index&quot;:null}" fill="#f1dec8" stroke-width="0"/><path d="M339.27082,111.98367c-0.32207,3.71425 -2.08446,16.13193 -10.5572,28.99252c-0.25041,0.38009 -3.6402,8.1655 -5.68838,13.71391c-0.64894,1.75794 -0.44997,5.52197 -1.28897,7.18269c-2.57116,5.08934 -6.49894,7.20844 -6.49894,7.20844c0,0 2.81053,-2.18915 3.07671,-7.59273c0.18489,-3.75328 1.47777,-6.51572 1.09216,-5.94736c-0.17176,0.25315 -26.94126,3.34244 -23.5374,-5.64293c4.62858,-12.21832 2.03082,-0.78523 6.38804,-16.43558c5.1967,-18.6656 -9.23601,-42.30981 -9.23601,-51.97896c0,-25.12896 -6.22539,-41.5 12,-41.5c18.22539,0 38.25,25.87105 34.25,72z" data-paper-data="{&quot;index&quot;:null}" fill="#116664" stroke-width="0"/><path d="M283.99655,189.98278c0,0 0.22922,3.87164 -1.13661,5.17787c-9.53771,9.12151 -48.96707,43.40546 -56.69672,43.40546c-8.83656,0 6.70833,-29.33202 6.70833,-37.70834c0,-1.81238 2.64581,-3.89731 2.64581,-3.89731c0,0 -0.09227,1.07303 0.31595,1.72422c0.35524,0.56669 2.37157,1.71475 2.37157,1.71475c0,0 10.79081,-1.57969 17.26436,-3.05229c8.32142,-1.89296 28.5273,-7.36438 28.5273,-7.36438z" data-paper-data="{&quot;index&quot;:null}" fill="#464343" stroke-width="0"/><path d="M198.02082,136.24409c0,20.1584 6.75,49 6.75,49c0,0 -16.25,-28.3416 -16.25,-48.5c0,-1.96078 0.94393,-25.25307 0.94393,-25.25307c0,0 -1.2867,5.90102 -2.52984,12.82046c-1.01215,5.63365 -0.25545,11.58308 -0.25545,11.58308c0,0 -3.5125,-7.10311 -3.4546,-13.44982c0.03881,-4.25498 1.22389,-8.76928 2.40208,-11.97811c3.9799,-10.83943 13.14902,-13.22255 13.64389,-13.22255c2.07107,0 -1.25,18.84161 -1.25,39z" data-paper-data="{&quot;index&quot;:null}" fill="#0f5a58" stroke-width="0"/><path d="M299.02081,148.31703c-3.66667,27.79235 -37.21858,38.49989 -65.37305,45.24c-3.86219,0.9246 -5.79362,-1.40667 -5.79362,-1.40667c0,0 -28.83333,-28.18153 -28.5,-49.5c0.07633,-4.88146 -0.16895,-0.16907 0.56487,-5.04913c0.40096,-2.6665 -5.76432,-21.0811 -5.16931,-23.86502c5.15293,-24.1097 23.35553,-65.7931 73.30565,-50.26752c58.13539,18.06974 34.97464,54.45987 30.96547,84.84835z" data-paper-data="{&quot;index&quot;:null}" fill="#ffecd4" stroke-width="0"/><g data-paper-data="{&quot;index&quot;:null}"><path d="M317.40366,149.89208c0,2.2738 -4.21416,3.42757 -7.08245,5.83978c-2.35287,1.97874 -3.28047,4.92763 -6.1425,5.99322c-4.4115,1.64248 -8.4742,0.95099 -9.57505,-1.333c-0.38559,-0.8 2.29552,-7.74455 3.2,-14.7c0.6,-4.61402 7.01441,-9.9 13.2,-9.9c6.18559,0 6.4,7.08598 6.4,14.1z" fill="#ffecd4" stroke-width="0"/><g fill="#deba92"><path d="M310.56124,141.14011c-3.32831,0.2589 -4.87923,1.01138 -4.87923,1.01138c0,0 2.32518,-3.62377 6.02276,-1.61261c2.74138,1.95135 2.81854,5.66419 2.81854,5.66419l-4.89675,6.13213c0,0 2.49101,-4.2563 2.90093,-7.36079c0.28811,-2.18195 -1.14643,-3.89806 -1.96625,-3.83428z" stroke-width="NaN"/><path d="M309.44352,152.9187c0,0 -1.02975,3.42794 -4.7202,2.66616c-2.30952,-0.47673 -3.73467,-0.88995 -4.98028,-0.57861c-2.23647,0.559 -3.25772,2.33638 -3.25772,2.33638c0,0 0.9199,-5.04048 4.48497,-3.77553c4.29201,1.52287 8.47323,-0.64839 8.47323,-0.64839z" stroke-width="0"/><path d="M311.28548,141.99765c0,0 0.22962,0.36908 -0.09519,0.83485c-0.40521,0.58106 -1.44303,1.3043 -2.20093,1.55285c-1.36541,0.44779 -2.9624,-0.86447 -2.9624,-0.86447c0,0 1.89239,0.29152 2.71734,0.02684c1.27839,-0.41014 2.54117,-1.55007 2.54117,-1.55007z" stroke-width="0"/><path d="M305.33875,147.06927c-0.61462,0.33231 -1.67271,1.01315 -1.67271,1.01315c0,0 0.44243,-1.40217 1.46369,-1.94579c0.56687,-0.30175 1.52445,0.10424 2.01065,0.23885c0.38972,0.10791 0.39956,0.49276 0.39956,0.49276c0,0 -1.24872,-0.31394 -2.20119,0.20103z" data-paper-data="{&quot;index&quot;:null}" stroke-width="0"/><path d="M305.10044,142.29611c-0.41711,1.43936 -0.29912,3.04433 -0.29912,3.04433c0,0 -0.84478,-0.18545 -0.95419,-1.19376c-0.04334,-0.39947 0.22962,-1.44806 0.42431,-2.11988c0.41711,-1.43936 2.04037,-1.89871 2.04037,-1.89871c0,0 -0.79426,0.72867 -1.21137,2.16801z" stroke-width="0"/><path d="M306.98145,146.89962c0,0 0.21123,-0.33703 0.7439,-0.26846c0.7635,0.09829 1.91663,0.65296 1.81612,1.84977c-0.09406,1.36689 -1.55711,2.56001 -1.55711,2.56001c0,0 0.61804,-1.68397 0.67883,-2.50811c0.09419,-1.27716 -1.68174,-1.63322 -1.68174,-1.63322z" data-paper-data="{&quot;index&quot;:null}" stroke-width="0"/><path d="M308.60486,150.23451c0,0 -0.88173,1.56903 -1.26466,2.34248c-0.68989,1.39345 -4.19412,0.4267 -4.19412,0.4267c0,0 3.4293,-0.56584 3.84715,-1.40377c0.64751,-1.29853 1.61163,-1.36542 1.61163,-1.36542z" data-paper-data="{&quot;index&quot;:null}" stroke-width="0"/><path d="M302.19764,148.48198c-0.26725,0.55504 -1.39441,1.11167 -2.05607,1.52904c-0.83837,0.52885 -0.49408,2.36159 -0.49408,2.36159c0,0 -0.70897,-0.01551 -0.78942,-0.36403c-0.08046,-0.34852 -0.15609,-2.2434 0.26328,-2.53426c0.61746,-0.42824 1.77735,-0.57941 2.06084,-1.16819c0.60591,-1.25835 -0.4893,-3.2625 -0.4893,-3.2625c0,0 2.21672,1.81402 1.61082,3.07238z" stroke-width="0"/></g></g><path d="M279.85415,83.98367c0,0 -7.04297,-3.10027 -14.26106,11.2869c-4.42802,8.82598 -15.20038,29.76154 -15.20038,29.76154c0,0 -0.50657,-5.70942 -0.30122,-8.08554c0.16188,-1.87309 1.43424,-5.02447 1.43424,-5.02447c0,0 -3.90078,7.83329 -5.28572,11.81192c-1.30284,3.74279 -2.79269,11.39558 -2.79269,11.39558c0,0 -2.40327,-6.42459 -2.60869,-9.69726c-0.2106,-3.35521 1.36022,-10.19256 1.36022,-10.19256c0,0 -3.30439,2.62763 -4.22491,5.18769c-1.50574,4.18761 -3.95313,17.55621 -3.95313,17.55621c0,0 -7.81885,-8.24526 -10.71796,-19.57219c-1.87724,-7.33445 -3.88379,-39.81009 -3.88379,-39.81009c0,0 -7.43578,12.76118 -10.50869,18.84461c-3.63246,7.19116 -5.38955,22.03767 -5.38955,22.03767c0,0 -2.78047,-4.83688 -3.92775,-12.75005c-0.33008,-2.27671 0.48456,-8.46022 0.48456,-8.46022c0,0 -2.75271,11.19548 -3.55951,17.03935c-0.7236,5.24132 -5.05891,10.91333 -5.05891,10.91333c0,0 -0.2854,-3.00527 -1.09007,-14.61015c-0.14701,-2.1201 -3.37556,1.08741 -5.19264,5.68949c-2.11525,5.35726 -1.35048,12.42678 -1.35048,12.42678c0,0 -3.87241,-12.62811 -4.6191,-17.66398c-0.55788,-3.76255 1.53794,-8.36061 1.53794,-8.36061c0,0 -2.74858,3.10092 -4.29816,4.28536c-1.82483,1.39483 -5.96067,3.55613 -5.96067,3.55613c0,0 9.66403,-16.83723 13.94881,-30.46108c5.61308,-17.84727 14.68418,-31.10544 27.69349,-39.14506c14.86051,-9.18364 52.84783,-18.95931 63.89251,-10.95931c1.29852,0.94056 3.27879,3.58567 3.27879,3.58567c0,0 16.1158,-4.42209 23.99229,-0.0672c35.1295,18.68842 25.7447,42.83407 22.79037,66.80417c-1.44685,11.73911 -11.02014,25.32828 -11.02395,25.34792c-9.99034,22.18266 -33.80174,44.35185 -33.80174,44.35185c0,0 5.10727,-11.34539 7.44432,-18.04787c3.35938,-9.63447 8.78247,-34.72525 8.78247,-34.72525c0,0 -2.62171,13.32346 -4.81474,17.09703c-7.9536,13.68583 -17.97241,17.23017 -17.97241,17.23017c0,0 10.09471,-27.34221 10.69113,-37.88022c0.66989,-11.8363 -5.53322,-30.69626 -5.53322,-30.69626z" data-paper-data="{&quot;index&quot;:null}" fill="#116664" stroke-width="0"/><path d="M279.01561,34.99409c0,2.34721 -4.61116,-12.75 -14,-12.75c-9.38884,0 -23.5,-6.25 -23.5,-6.25c0,0 12.13375,-2.40094 21.5,-1.75c14.38884,1 16,18.40279 16,20.75z" data-paper-data="{&quot;index&quot;:null}" fill="#0b5c5a" stroke-width="0"/><path d="M228.51041,233.23959c0,1.37932 13.96499,-29.1443 13.96499,-29.1443c0,0 15.62417,-4.26009 23.87957,-6.31439c7.30381,-1.81751 23.56523,-7.05493 23.56523,-7.05493c0,0 1.86831,6.96178 1.94173,12.7747c0.04904,3.88234 0.78937,10.7129 0.78937,10.7129c0,0 21.02988,10.27158 25.94706,12.29147c11.80872,4.85082 23.53063,9.08082 28.06971,13.74125c5.65699,5.80823 5.38129,14.67084 7.05355,29.03486c0.76326,6.55603 10.10105,4.04815 9.466,9.05224c-1.3528,16.53961 -70.47919,70.19361 -157.50573,54.78119c-63.52509,-11.25031 -99.0786,-67.17664 -99.0786,-67.17664c0,0 19.74225,-7.85821 26.47183,-23.41176c7.43843,-17.19188 12.93677,-22.16344 25.76864,-27.95323c12.83187,-5.78978 43.51641,-4.83333 55.66667,-4.83333c1.87242,0 4.85687,-13.5125 6.5924,-13.22236c2.45553,2.07717 3.67727,2.82445 5.8776,5.54793c0.80258,0.99341 7.10788,0.63264 7.10788,0.63264c0,0 -5.57787,27.00053 -5.57787,30.54179z" data-paper-data="{&quot;index&quot;:null}" fill="#f2f2f2" stroke-width="0"/><path d="M234.00069,202.72087c0,0.37195 -5.41007,30.74754 -5.41007,30.74754l13.80232,-30.17988c0,0 17.96222,-4.03857 26.60871,-6.23936c7.24797,-1.84482 21.15207,-6.36467 21.15207,-6.36467l1.20353,8.84715c0,0 -11.73268,3.84627 -19.02467,5.21383c-8.17768,1.53366 -27.02291,5.21372 -27.02291,5.21372c0,0 -9.09824,15.21482 -12.62237,25.33909c-7.34541,21.1022 -31.98338,98.42887 -31.98338,98.42887l-6.90824,-2.21431l30.99125,-98.64371c0,0 3.39296,-22.73351 1.6949,-23.33962c-1.49994,-0.53539 -9.3859,-5.38008 -9.3859,-5.38008c0,0 1.15416,-4.15204 1.59051,-4.93075c0.56285,-1.00447 2.07616,-2.59306 2.07616,-2.59306c0,0 3.68839,2.51843 6.92857,5.28572c2.3434,2.00139 6.30953,-0.66323 6.30953,0.80953z" data-paper-data="{&quot;index&quot;:null}" fill="#c53939" stroke-width="0"/><path d="M234.13637,202.11496c0,0 0.40084,1.67099 -0.79624,2.06289c-1.34019,0.43877 -4.37914,-0.19623 -6.35376,-1.09623c-1.56062,-0.7113 -7.00356,-5.75382 -7.00356,-5.75382l1.12022,-1.21284c0,0 1.94075,0.6187 3.37925,2.12275c1.40533,1.46937 2.28573,3.82171 4.22814,4.08498c3.03576,0.41147 5.42595,-0.20773 5.42595,-0.20773z" data-paper-data="{&quot;index&quot;:null}" fill="#b23434" stroke-width="0"/><path d="M289.80285,190.83718c0,0 1.10351,0.78428 1.16653,1.12647c0.08274,0.44925 -0.60186,1.22526 -0.60186,1.22526c0,0 -36.28818,9.60998 -37.8488,10.32128c-1.97463,0.9 -9.78234,1.09623 -9.78234,1.09623l0.31091,-1.61647c0,0 14.26779,-2.75443 21.08904,-4.52742c8.42341,-2.18942 25.66652,-7.62536 25.66652,-7.62536z" data-paper-data="{&quot;index&quot;:null}" fill="#b23434" stroke-width="0"/><path d="M216.34428,226.90626c0,5.2467 3.91667,7.5 3.91667,7.5c0,0 -7.08334,-2.91996 -7.08334,-8.16667c0,-5.2467 -0.91666,-13.16667 -0.91666,-13.16667c0,0 4.08333,8.58663 4.08333,13.83334z" fill="#e2e2e2" stroke-width="0"/><path d="M291.21948,218.96403c0,0 -18.18995,15.58397 -24.10746,17.40744c-5.01405,1.54507 -25.47626,4.477 -25.47626,4.477c0,0 17.67821,-4.74597 22.20534,-7.39796c4.25083,-2.49014 27.37838,-14.48649 27.37838,-14.48649z" data-paper-data="{&quot;index&quot;:null}" fill="#e2e2e2" stroke-width="0"/><g stroke-width="0"><path d="M304.88104,161.79759c-0.13597,1.386 -0.44542,1.98328 -1.64511,1.86558c-1.19969,-0.1177 -1.38716,-0.76373 -1.25119,-2.14972c0.13597,-1.386 0.5257,-3.49563 0.5257,-3.49563l2.50011,-0.3383c0,0 -0.07767,3.58979 -0.1295,4.11807z" fill="#b0a467"/><path d="M305.48736,180.98446c-0.52978,5.40019 1.18615,10.47782 -0.25788,12.47672c-1.14854,1.58986 -5.45323,0.64622 -6.16538,0.57636c-1.60752,-0.1577 -0.34923,-3.92884 0.60193,-13.62418c0.65665,-6.69339 2.10394,-16.88514 2.10394,-16.88514l3.40284,0.0688c0,0 1.26571,7.6921 0.31455,17.38744z" fill="#8b4c4c"/><path d="M306.88825,163.31098c0,0 -2.01158,2.35467 -3.40758,2.21771c-1.396,-0.13695 -3.18426,-2.2264 -3.18426,-2.2264l2.59205,-2.18172l1.71153,-0.06177z" fill="#a49861"/></g></g></g></svg>