<svg version="1.1" xmlns="http://www.w3.org/2000/svg" xmlns:xlink="http://www.w3.org/1999/xlink" width="325.83184" height="325.83184" viewBox="0,0,325.83184,325.83184"><g transform="translate(-77.08409,-17.08409)"><g data-paper-data="{&quot;isPaintingLayer&quot;:true}" fill-rule="nonzero" stroke-linecap="butt" stroke-linejoin="miter" stroke-miterlimit="10" stroke-dasharray="" stroke-dashoffset="0" style="mix-blend-mode: normal"><path d="M77.08409,180.00001c0,-89.97598 72.93994,-162.91592 162.91592,-162.91592c89.97598,0 162.91592,72.93994 162.91592,162.91592c0,89.97598 -72.93994,162.91592 -162.91592,162.91592c-89.97598,0 -162.91592,-72.93994 -162.91592,-162.91592z" data-paper-data="{&quot;index&quot;:null}" fill="#ff789f" stroke="none" stroke-width="0"/><path d="M317.38465,140.15502c0,8.62779 -5.56682,15.62199 -12.43383,15.62199c-6.86701,0 -12.43384,-6.9942 -12.43384,-15.62199c0,-8.62779 5.56682,-15.62199 12.43384,-15.62199c6.86701,0 12.43383,6.9942 12.43383,15.62199z" data-paper-data="{&quot;index&quot;:null}" fill="#060606" stroke="none" stroke-width="0"/><path d="M304.11393,138.75688c0,7.74848 30.32507,45.7251 48.03779,76.20721c10.97352,18.88451 15.68612,54.95524 15.68612,54.95524c0,0 -27.1334,-31.04139 -44.36281,-42.22917c-16.51898,-10.72646 -21.84681,-20.15002 -22.42893,-17.78559c-0.05715,1.67501 -1.33823,8.70081 -2.43721,13.03946c-2.58857,10.21934 -9.6895,13.58179 -9.6895,13.58179c0,0 4.0108,-10.00744 2.82128,-7.67859c-1.87311,3.66716 -9.14685,14.16254 -9.14685,14.16254c0,0 5.95618,-21.95621 4.49035,-45.42801c-0.13095,-2.09696 -36.8532,1.51294 -58.27956,7.38504c-7.60681,3.24477 -13.19574,11.91317 -13.19574,11.91317c0,0 -3.47246,1.3493 -2.61042,10.79325c0.72682,7.96251 -2.20473,16.69265 -2.20473,16.69265c0,0 0.05164,-6.41073 -4.09218,-9.46629c-3.25247,-2.39829 -7.75155,-12.63799 -7.75155,-12.63799c0,0 0.27758,2.51284 -0.16735,4.44385c-0.54633,2.37114 -2.86935,8.73565 -2.86935,8.73565l-1.81706,-5.31992l-5.64807,8.15258l-1.832,-1.66242l-10.89542,4.62119c0,0 11.13755,-40.14497 11.9803,-45.35185c1.13569,-7.0169 6.42126,-20.30051 6.42126,-20.30051c0,0 29.0781,11.76084 55.26306,-4.00554c29.34748,-17.67059 56.64144,-75.85791 56.64144,-75.85791c0,0 -1.9129,13.98743 -1.9129,43.04019z" data-paper-data="{&quot;index&quot;:null}" fill="#181414" stroke="none" stroke-width="0"/><path d="M285.65251,182.29727c0,0 -7.34702,8.18182 -11.36364,8.18182c-4.01662,0 -4.09091,-0.82741 -4.09091,-4.09091c0,-3.2635 -4.47116,-5.90909 -0.45455,-5.90909c1.86315,0 5.42091,0.39121 8.70028,0.8107c3.79036,0.48486 7.20881,1.00748 7.20881,1.00748z" data-paper-data="{&quot;index&quot;:null}" fill="#d6d6d6" stroke="none" stroke-width="0"/><g data-paper-data="{&quot;index&quot;:null}" stroke="none" stroke-width="0"><path d="M225.39404,280.11451l19.1661,-17.12914c0,0 1.95504,11.13703 -3.27342,23.92646c-8.93418,21.85404 -27.32399,49.45269 -28.89267,49.45269c-3.86599,0 -3,-15.75252 -3,-30.25c0,-7.8056 -5.99711,-22.32332 -3.08311,-32.21631c2.49822,-8.48143 9.79861,-9.03369 11.58311,-9.03369c3.86599,0 7.5,15.25 7.5,15.25z" fill="#e3cb94"/><path d="M221.41294,297.2611c4.05862,0.14386 20.31973,-18.33796 20.31973,-18.33796l-1.31973,2.71296c0,0 -13,17.82881 -20,16.625c-4.45739,-0.76655 -10.63071,-21.125 -9.25,-21.125c0.31378,0 1.00704,-0.07462 1.00704,-0.07462c0,0 5.03121,20.05034 9.24296,20.19962z" fill="#d9d3c7"/><path d="M225.39404,280.61451l14.25,-13.75c0,0 6.0984,1.90246 3.0874,6.57281c-3.87732,6.01408 -12.16202,14.75453 -17.22891,18.2138c-1.54378,1.05397 -2.84055,0.29807 -4.35849,-0.03661c-2.84291,-0.62682 -7.10384,-12.02573 -6.54737,-19.7332c0.26168,-3.6245 4.11998,-7.0168 5.04737,-7.0168c2.8995,0 5.75,15.75 5.75,15.75z" fill="#d9bd7b"/><path d="M225.41294,278.88608c0.69036,0 -0.75,4.79454 -1.25,7.375c-0.53843,2.77878 -1.55964,5.875 -2.25,5.875c-0.69036,0 1,-3.54454 1,-6.375c0,-2.83046 1.80964,-6.875 2.5,-6.875z" fill="#cab073"/><path d="M221.41294,267.8861c0.69036,0 -1.75,4.79454 -2.25,7.375c-0.32176,1.66057 -1.42305,6.3809 -2.2034,7.89896c-0.52548,1.02224 -0.76879,-0.77396 -1.0466,-0.77396c-0.69036,0 2,-4.79454 2,-7.625c0,-2.83046 2.80964,-6.875 3.5,-6.875z" fill="#cab073"/><path d="M237.66294,268.8861c0.69036,0 -1.75,4.79454 -2.25,7.375c-0.32176,1.66058 -1.42305,6.3809 -2.2034,7.89896c-0.52547,1.02224 -0.76879,-0.77396 -1.0466,-0.77396c-0.69036,0 2,-4.79454 2,-7.625c0,-2.83046 2.80964,-6.875 3.5,-6.875z" fill="#cab073"/></g><path d="M354.56765,236.85756l18.05542,37.39719c0,0 -22.11199,35.23445 -52.65155,48.60882c-9.24368,3.99385 -33.17197,14.8344 -48.33612,17.51625c-30.61729,5.41481 -58.73441,0.1444 -58.73441,0.1444c0,0 54.16666,-46.42552 54.16666,-74.5c0,-28.07448 28.66666,-60 28.66666,-60c0,0 23.75479,14.45288 33.61275,20.36765c7.60832,4.565 25.22059,10.46569 25.22059,10.46569z" data-paper-data="{&quot;index&quot;:null}" fill="#3d414d" stroke="none" stroke-width="0"/><path d="M189.56764,282.02423c0,19.32997 23.5,60.5 23.5,60.5c0,0 -46.97439,-14.78836 -64.56357,-27.24173c-17.12622,-12.12559 -17.10309,-14.92494 -17.10309,-14.92494l27.33333,-54.16666c0,0 10.88472,-2.13528 18.57362,-6.3958c7.36519,-4.08115 26.63045,-18.65241 26.63045,-18.65241c0,0 -14.37073,50.42939 -14.37073,60.88154z" data-paper-data="{&quot;index&quot;:null}" fill="#3d414d" stroke="none" stroke-width="0"/><path d="M276.89402,194.72909c0,13.39291 -7.06624,27.25 -18.25,27.25c-5.15718,0 -29.86932,1.11147 -29.86932,1.11147c0,0 3.87116,-9.15746 4.62364,-13.24224c0.56815,-3.08416 -0.50432,-9.11922 -0.50432,-9.11922c0,0 16.81966,-10.271 24.28265,-17.47516c6.91126,-6.67156 16.96735,-21.27484 16.96735,-21.27484c0,0 -1.77895,10.16161 -0.45582,21.63901c0.42503,3.68689 3.20582,7.85477 3.20582,11.11099z" data-paper-data="{&quot;index&quot;:null}" fill="#d9bbb0" stroke="none" stroke-width="0"/><path d="M282.06665,198.58516c0,0 1.08691,18.17102 -10.01525,34.53946c-15.61176,23.01717 -38.60141,48.20903 -46.81708,48.20903c-4.73622,0 -7.32324,-15.52092 -10.73287,-31.35487c-1.41884,-6.58891 -6.63348,-14.734 -7.49531,-20.74831c-0.86838,-6.06007 3.28808,-9.29779 3.28808,-9.29779c0,0 7.79161,-11.12692 12.05262,-13.84014c4.20723,-2.67896 9.75864,1.79376 10.558,4.15187c0.70352,2.07538 8.20221,4.3256 8.20221,4.3256z" data-paper-data="{&quot;index&quot;:null}" fill="#dedede" stroke="none" stroke-width="0"/><g data-paper-data="{&quot;index&quot;:null}" stroke="none" stroke-width="0"><path d="M250.06764,262.0621c5.45391,-10.23747 16.11362,-23.2682 22.10943,-33.49028c10.06214,-17.15464 14.55724,-29.42638 14.55724,-29.42638c0,0 2.34957,1.6054 7.16019,5.16977c4.71103,3.49058 11.72468,49.0455 11.72468,49.0455l-27.83643,18.24916c0,0 8.19807,2.2574 10.80255,3.91212c2.85613,1.8146 5.64901,6.54013 5.64901,6.54013c0,0 -21.14141,9.43466 -33.24653,18.03879c-8.9871,6.38789 -20.06423,22.21056 -31.21774,31.51841c-7.98194,6.66109 -18.03573,8.35947 -18.03573,8.35947c0,0 26.66666,-56.01731 38.33334,-77.91666z" fill="#35487c"/><path d="M212.06764,298.27423c0,15.87818 2.08334,42.08333 2.08334,42.08333c0,0 -20.61901,-14.38133 -21.25001,-32.08333c-0.60453,-16.95959 -17.30158,-33.87943 -17.30158,-33.87943l18.28501,-11.52407l-13.63398,-11.96489c0,0 3.87604,-7.58721 10.22587,-15.66757c7.23266,-9.20379 27.84135,-25.71404 27.84135,-25.71404c0,0 -10.53795,15.107 -11.15178,31.70112c-0.81547,22.04517 4.90178,47.98977 4.90178,57.04887z" fill="#35487c"/><path d="M293.94265,282.4409c0,0 -16.52493,4.89454 -32.47185,16.83379c-12.40916,9.29057 -23.70974,25.19856 -31.50138,31.19597c-11.3882,8.76576 -16.66964,8.79928 -16.66964,8.79928l1.0976,-1.4333c0,0 11.90083,-6.23809 15.13283,-9.73107c12.5843,-13.60046 31.65459,-31.39717 38.55627,-35.78004c3.8503,-2.44511 23.47757,-11.02893 23.47757,-11.02893c0,0 -2.62009,-3.7089 -3.80032,-4.32978c-5.56152,-2.92571 -13.80325,-5.04676 -13.61276,-5.04676c0.58203,0 28.15281,-19.75104 28.15281,-19.75104l-9.47449,-48.78141l4.1856,4.25859l8.52054,45.7019l-27.32197,18.05113c0,0 8.17261,2.23335 10.96512,4.19365c2.3865,1.67529 4.76404,6.84802 4.76404,6.84802z" fill="#c8cbd7"/><path d="M196.50423,316.20637c0,2.97423 16.17971,22.48399 16.17971,22.48399l-0.95243,0.9251c0,0 -18.4091,-18.77826 -18.4091,-25.68182c0,-3.13552 2.11153,-4.72976 -2.03398,-13.47504c-3.02963,-6.39124 -8.4305,-15.40721 -12.19803,-21.49177c-2.42761,-3.92059 -3.29731,-4.08744 -3.29731,-4.08744c0,0 6.67615,-4.48776 9.78467,-6.48102c2.66222,-1.70708 7.73589,-4.7536 7.73589,-4.7536l-13.65533,-12.73139c0,0 9.14714,-13.88167 15.05193,-20.26035c6.69852,-7.23612 23.05914,-20.90936 23.05914,-20.90936l-2.32471,3.58894c0,0 -16.74995,14.33736 -19.97376,18.06382c-5.30148,6.12807 -13.02993,19.18399 -13.02993,19.18399c0,0 7.67916,6.65838 8.51491,7.37708c1.44008,1.23836 5.06888,5.89772 5.06888,5.89772c0,0 -6.28225,3.61602 -9.10031,5.78348c-2.61771,2.01335 -7.25136,6.79309 -7.25136,6.79309c0,0 12.28553,17.22971 14.89017,22.85291c3.18848,6.88366 1.94095,14.62536 1.94095,16.92167z" fill="#c8cbd7"/></g><path d="M241.22329,214.38591l2.3344,0.31107c0,0 -2.9906,10.16555 -5.36724,19.77601c-1.56704,6.33662 -2.86716,12.43193 -2.86716,15.21292c0,14.41463 -7.70426,30.1 -10.3,30.1c-2.59574,0 2.1,-14.88537 2.1,-29.3c0,-14.41463 14.1,-36.1 14.1,-36.1z" data-paper-data="{&quot;index&quot;:null}" fill="#d4d4d4" stroke="none" stroke-width="0"/><path d="M242.32329,222.41924c0,1.41753 -1.47746,2.56667 -3.3,2.56667c-1.82254,0 -3.3,-1.14914 -3.3,-2.56667c0,-1.41753 1.47746,-2.56667 3.3,-2.56667c1.82254,0 3.3,1.14914 3.3,2.56667z" data-paper-data="{&quot;index&quot;:null}" fill="none" stroke="#acacac" stroke-width="0.5"/><path d="M287.47069,201.74172c0,0 -7.65673,13.81041 -13.36907,21.026c-5.80143,7.32813 -21.17638,22.61036 -21.17638,22.61036c0,0 -1.96949,-11.43305 -3.90772,-16.35316c-1.42475,-3.61666 -3.23613,-7.40909 -5.07913,-10.20965c-0.44055,-0.66946 -2.83133,-3.43719 -2.83133,-3.43719c0,0 0.72173,-4.65363 7.05979,-9.55419c7.97814,-6.16866 37.03112,-24.53672 37.03112,-24.53672c0,0 2.58966,6.94327 2.97118,10.37694c0.37598,3.38378 -0.69845,10.07761 -0.69845,10.07761z" data-paper-data="{&quot;index&quot;:null}" fill="#e7e7e7" stroke="none" stroke-width="0"/><path d="M236.10337,209.48161c2.55883,2.26932 4.5342,3.83941 4.68273,5.84027c0.05513,0.74261 -9.51817,15.77386 -9.51817,15.77386c0,0 -4.10752,-2.51322 -9.14836,-1.29658c-7.65948,1.84867 -9.04931,-7.91617 -9.04931,-7.91617c0,0 3.64573,-9.89401 5.18708,-12.23619c2.70909,-4.11664 15.13262,-9.59422 15.13262,-9.59422c0,0 0.15458,7.15972 2.71341,9.42904z" data-paper-data="{&quot;index&quot;:null}" fill="#e7e7e7" stroke="none" stroke-width="0"/><path d="M232.73995,263.16924c0,1.41753 -1.32822,2.56667 -2.96667,2.56667c-1.63845,0 -2.96667,-1.14914 -2.96667,-2.56667c0,-1.41753 1.32822,-2.56667 2.96667,-2.56667c1.63845,0 2.96667,1.14914 2.96667,2.56667z" data-paper-data="{&quot;index&quot;:null}" fill="none" stroke="#acacac" stroke-width="0.5"/><path d="M287.63703,144.50554c0.66469,6.8811 -8.4721,16.49874 -12.43383,16.49874c-3.96173,0 0.95645,-8.15093 0.95645,-11.7165c0,-3.56556 -1.09239,-12.19472 2.86934,-12.19472c2.18036,0 8.12981,2.46167 8.60804,7.41248z" data-paper-data="{&quot;index&quot;:null}" fill="#e2c4b8" stroke="none" stroke-width="0"/><path d="M285.54522,114.12833c0,11.56041 -11.46065,51.30259 -11.46065,51.30259c0,0 -2.74567,9.1738 -9.57292,16.49093c-7.7269,8.28133 -19.87591,14.99045 -24.32562,18.19457c-1.54994,1.11606 -4.85435,0.3314 -4.85435,0.3314c0,0 -15.40278,-4.16416 -23.95943,-10.76501c-6.02203,-4.64557 -17.16786,-11.95065 -17.16786,-11.95065c0,0 -20.47047,-45.9319 -20.00087,-52.81037c2.43864,-35.71963 42.21967,-41.16071 55.86769,-41.16071c19.28046,0 55.47402,13.33177 55.47402,30.36724z" data-paper-data="{&quot;index&quot;:null}" fill="#e2c4b8" stroke="none" stroke-width="0"/><path d="M148.26392,127.73976c0.50185,-3.21433 4.32704,-42.55123 26.0419,-64.4956c58.89971,-59.52223 94.89029,-16.60412 94.89029,-16.60412c0,0 4.30059,-2.27413 9.09837,0.68727c29.35597,18.11976 29.34438,45.28861 26.62213,59.45123c-2.06639,10.75055 -6.18013,15.59203 -12.44841,25.69565c-4.23233,6.82192 -15.08231,15.82 -15.08231,15.82l0.92394,-4.69069c0,0 -1.46808,1.98014 -2.59896,2.7413c-1.26964,0.85456 -4.65088,2.13838 -4.65088,2.13838c0,0 0.37565,-1.37611 1.62452,-4.32001c0.81098,-1.91171 0.71461,-4.19433 0.71461,-4.19433l-4.54982,4.41043c0,0 4.69762,-9.10129 3.94537,-18.07211c-0.72182,-8.60799 -3.85413,-15.66243 -3.82271,-14.82265c0.13472,3.601 3.00529,9.49607 3.00529,9.49607c0,0 -5.3181,0.15122 -7.38246,-1.19179c-2.31171,-1.50394 -5.82995,-7.40379 -5.82995,-7.40379c0,0 0.77004,4.91893 1.93088,6.60175c1.4375,2.08387 6.04295,4.95744 6.04295,4.95744c0,0 -7.97548,-1.34835 -11.79101,-3.91584c-3.81552,-2.56748 -7.74492,-8.20668 -7.74492,-8.20668c0,0 1.15722,4.45944 2.39126,6.07628c1.5725,2.0603 6.27687,5.28075 6.27687,5.28075c0,0 -7.25674,-0.51766 -10.04757,-1.38229c-2.89436,-0.8967 -7.01937,-6.23561 -7.01937,-6.23561c0,0 2.01941,4.14048 3.21019,5.66528c1.23077,1.576 4.05847,3.6422 4.05847,3.6422c0,0 -2.17522,0.63289 -3.33845,0.34823c-1.2736,-0.31167 -4.00208,-2.14456 -4.00208,-2.14456l3.9312,3.79221c0,0 -8.72834,2.01685 -13.18,0.07407c-4.57146,-1.99505 -12.37823,-12.183 -12.37823,-12.183c0,0 0.9832,5.77151 2.19154,8.27557c1.15284,2.38907 4.89978,6.42005 4.89978,6.42005c0,0 -4.41075,0.4986 -6.5112,-0.18769c-1.80586,-0.59004 -5.34181,-3.68508 -5.34181,-3.68508l4.13202,5.97511l-5.83667,-2.65684c0,0 -8.63026,-4.95633 -10.94472,-10.29264c-2.28316,-5.26416 -2.84941,-21.5117 -2.84941,-21.5117c0,0 1.30804,16.24591 -1.00702,21.71202c-2.67186,6.30854 -10.76224,15.14066 -10.76224,15.14066c0,0 -1.18216,-2.74254 -1.48334,-3.57029c-0.32142,-0.88338 -0.69248,-2.44786 -0.69248,-2.44786c0,0 -4.62875,12.04096 -1.7522,17.80499c1.86698,3.74104 8.37656,12.76307 12.47324,17.1071c1.81225,1.92167 3.51864,1.82893 3.51864,1.82893c0,0 -2.25602,1.08263 -4.90343,0.12979c-1.29301,-0.46537 -5.07415,-3.38478 -5.07415,-3.38478c0,0 0.50152,0.54192 2.1972,1.97987c1.69568,1.43795 5.10461,4.46261 5.10461,4.46261c0,0 -3.6927,-0.278 -5.77941,-0.84686c-2.01551,-0.54946 -6.76235,-4.78738 -6.76235,-4.78738c0,0 2.30887,3.90292 3.50174,4.66698c2.40701,1.54174 4.31443,2.85437 4.31443,2.85437c0,0 -3.65905,0.80922 -7.75934,-0.35054c-4.10029,-1.15976 -7.18878,-7.95377 -7.18878,-7.95377c0,0 1.58492,2.5225 2.6738,4.19294c3.09806,4.75267 9.43042,9.48964 9.43042,9.48964c0,0 -17.88467,-12.5394 -23.76665,-30.31369c-3.366,-10.17146 -2.35425,-21.07039 -2.35425,-21.07039c0,0 0.47702,6.72724 0.35773,8.51144c-0.11929,1.78421 -0.10253,11.48249 -0.10253,11.48249c0,0 -5.97869,-4.75542 -7.03284,-11.98479c-1.05415,-7.22938 0.00153,-7.57586 0.00153,-7.57586c0,0 -0.43103,8.56297 -0.96313,9.77336c-0.65766,1.49599 -7.80972,6.33452 -7.80972,6.33452c0,0 2.53803,-9.3234 3.03988,-12.53772z" data-paper-data="{&quot;index&quot;:null}" fill="#2a1f1f" stroke="#000000" stroke-width="0"/><path d="M183.1339,148.38859l0.80617,0.89817c0,0 -6.50815,-0.32885 -9.34589,-0.32885c-3.99779,0 -9.70781,0.30208 -9.70781,0.30208l-1.83788,-2.14665c0,0 6.23101,0.47823 12.4566,0.47823c6.22559,0 7.62882,0.79703 7.62882,0.79703z" data-paper-data="{&quot;index&quot;:null}" fill="#e3e3e3" stroke="none" stroke-width="0"/><path d="M185.33099,151.96573l1.10113,0.95573c0,0 -4.85384,2.12644 -7.04844,3.4849c-3.09174,1.91379 -6.89622,4.68438 -6.89622,4.68438l-1.77569,-1.47385c0,0 3.52319,-1.63527 8.33782,-4.61555c4.81463,-2.98028 6.28138,-3.03561 6.28138,-3.03561z" data-paper-data="{&quot;index&quot;:null}" fill="#e75f5f" stroke="none" stroke-width="0"/><g data-paper-data="{&quot;index&quot;:null}" stroke="none" stroke-width="0"><path d="M202.57691,260.91413c3.97768,-3.86632 8.68007,-9.29982 11.15808,-9.29982c3.17043,0 14.5474,-0.51006 14.5474,-0.51006c0,0 -2.81793,11.38135 -6.10365,15.24267c-3.78016,4.44238 -9.38125,11.82989 -9.38125,11.82989c0,0 -10.60386,-0.81965 -14.20358,-1.96623c-3.42259,-1.09016 -6.89017,-4.75252 -6.89017,-4.75252c0,0 5.016,-4.85074 10.87317,-10.54393z" fill="#c87c7c"/><path d="M266.39125,280.83306c0,0 -3.46757,3.66235 -6.89017,4.75252c-3.59972,1.14657 -15.45358,3.21623 -15.45358,3.21623c0,0 -3.60469,-13.69475 -5.94375,-19.64239c-3.46766,-8.81738 -4.8375,-20.20136 -4.8375,-20.20136c0,0 1.84184,2.03125 7.96875,2.03125c2.47801,0 15.30539,13.871 19.28308,17.73732c2.10717,8.5057 5.87317,12.10643 5.87317,12.10643z" data-paper-data="{&quot;index&quot;:null}" fill="#ca7d7d"/><path d="M237.00415,256.92492c0,1.95972 1.91386,6.61291 1.29032,6.61291c-0.62355,0 -3.06451,-4.65319 -3.06451,-6.61291c0,-1.95972 -0.48387,-4.35484 -0.48387,-4.35484c0,0 2.25807,2.39512 2.25807,4.35484z" data-paper-data="{&quot;index&quot;:null}" fill="#be7676"/><path d="M267.92523,246.38818c0,8.03323 -5.90909,25.90909 -5.90909,25.90909c0,0 -13.83605,-1.83995 -20.41313,-6.50361c-1.39435,-0.98871 -2.46518,-2.16442 -3.28695,-3.44199c-3.07068,-4.77392 -2.66357,-10.97003 -2.66357,-14.14531c0,-8.03323 8.18781,-9.54545 17.72727,-9.54545c9.53946,0 14.54545,-0.30596 14.54545,7.72727z" fill="#d68484"/><path d="M212.70353,230.47882c5.98371,0 14.75594,10.14135 14.75594,10.14135c0,0 -0.49875,9.2736 -2.36887,12.6796c-1.95649,1.82317 -7.18604,5.86107 -12.1442,7.69119c-5.49683,2.02895 -10.6601,1.76085 -10.6601,1.76085c0,0 -2.93708,-9.81759 -1.88834,-19.99406c1.33444,-12.9489 6.32187,-12.27893 12.30558,-12.27893z" data-paper-data="{&quot;index&quot;:null}" fill="#d68484"/><path d="M237.95455,243.05241l-1.86217,9.8607c0,0 -5.34281,0.38264 -6.7725,0.0367c-1.29375,-0.31304 -3.69671,-2.18479 -3.69671,-2.18479l0.68915,-9.56745c0,0 5.34992,-1.73062 6.92661,-1.27857c2.54319,0.72916 4.71562,3.13341 4.71562,3.13341z" fill="#e99090"/><path d="M267.32875,244.42681c0,2.93401 -6.71573,7.5 -15,7.5c-3.91325,0 -14.52225,-2.02502 -14.52225,-2.02502l-1.10275,-6.72498c0,0 5.15323,-4.6875 13.4375,-4.6875c8.28427,0 17.1875,3.00349 17.1875,5.9375z" fill="#be7575"/><path d="M224.51625,240.05181l0.05154,5.35786c0,0 -7.07403,0.8022 -11.30154,-0.35786c-7.97177,-2.1875 -11.25,-7.06599 -11.25,-10c0,-2.93401 3.3956,-4.51454 11.5625,-3.125c7.34677,1.25 10.9375,8.125 10.9375,8.125z" fill="#be7575"/><path d="M225.17149,250.48024c0,0.25889 -2.02289,2.72681 -3.92137,2.72681c-1.89848,0 -3.92137,-1.1776 -3.92137,-1.43649c0,-0.25889 1.53902,-0.46875 3.4375,-0.46875c1.89848,0 4.40524,-1.08046 4.40524,-0.82157z" fill="#cc7e7e"/><path d="M243.24953,253.10569c-0.11024,0.22911 -2.79851,1.47136 -4.33515,0.58742c-1.53664,-0.88394 -2.67252,-2.86798 -2.56227,-3.09708c0.11024,-0.22911 1.4453,0.30173 2.98194,1.18567c1.53664,0.88394 4.02572,1.09488 3.91548,1.32399z" fill="#cc7e7e"/><path d="M225.61188,252.2475c0,0 0,2.39512 0,4.35484c0,1.95972 -5.50548,4.35484 -6.12903,4.35484c-0.62354,0 3.87097,-2.39512 3.87097,-4.35484c0,-1.95972 2.25806,-4.35484 2.25806,-4.35484z" fill="#be7676"/><path d="M217.54737,272.16686l-0.95376,1.74757c0,0 -1.44714,-0.09547 -3.32741,-0.26007c-2.42026,-0.21187 -5.55815,-0.53827 -7.25109,-0.92298c-5.67808,-1.29032 -12.01613,-4.43548 -12.01613,-4.43548l2.17742,-1.04839c0,0 6.12038,3.45571 9.571,4.25c3.66063,0.84263 11.79997,0.66935 11.79997,0.66935z" fill="#c7b8b8"/><path d="M215.4506,274.7475l-0.95376,1.74757c0,0 -7.57033,-0.49946 -10.5785,-1.18306c-5.67808,-1.29032 -12.01613,-4.43548 -12.01613,-4.43548l2.17742,-1.04839c0,0 6.12038,3.45571 9.571,4.25c3.66063,0.84263 11.79997,0.66935 11.79997,0.66935z" fill="#c7b8b8"/><path d="M252.73444,280.52976c3.45061,-0.79429 10.21616,-4.25 10.21616,-4.25l0.7258,1.37097c0,0 -5.53159,2.82257 -11.20967,4.1129c-3.00816,0.6836 -10.41721,1.50564 -10.41721,1.50564l-0.3086,-2.39274c0,0 7.33289,0.49586 10.99352,-0.34677z" data-paper-data="{&quot;index&quot;:null}" fill="#c7b8b8"/><path d="M254.34735,283.59427c3.45061,-0.79429 10.53874,-4.41129 10.53874,-4.41129l0.7258,1.37097c0,0 -5.85417,2.98386 -11.53225,4.27419c-3.00816,0.6836 -10.5785,1.18306 -10.5785,1.18306l-0.95376,-1.74758c0,0 8.13934,0.17328 11.79997,-0.66935z" data-paper-data="{&quot;index&quot;:null}" fill="#c7b8b8"/></g><path d="M299.64139,214.99147c-0.05975,1.75128 -1.39916,9.09699 -2.54818,13.6332c-2.70644,10.68467 -10.13071,14.20023 -10.13071,14.20023c0,0 4.19343,-10.46312 2.94974,-8.02823c-1.9584,3.83414 -9.56335,14.80743 -9.56335,14.80743l7.82212,-51.24943l12.45732,8.06148c0,0 -0.39723,6.18005 -0.98694,8.57532z" data-paper-data="{&quot;index&quot;:null}" fill="#181414" stroke="none" stroke-width="0"/><path d="M218.73047,207.03447c0,0 -3.38058,13.66074 -2.47928,23.53471c0.75992,8.32508 -2.30512,17.45274 -2.30512,17.45274c0,0 0.05399,-6.70264 -4.27852,-9.89733c-3.40057,-2.5075 -9.93784,-15.13012 -9.93784,-15.13012z" data-paper-data="{&quot;index&quot;:null}" fill="#181414" stroke="none" stroke-width="0"/></g></g></svg>