<?xml version="1.0" encoding="UTF-8" standalone="no"?>
<svg
   xmlns:dc="http://purl.org/dc/elements/1.1/"
   xmlns:cc="http://creativecommons.org/ns#"
   xmlns:rdf="http://www.w3.org/1999/02/22-rdf-syntax-ns#"
   xmlns:svg="http://www.w3.org/2000/svg"
   xmlns="http://www.w3.org/2000/svg"
   xmlns:sodipodi="http://sodipodi.sourceforge.net/DTD/sodipodi-0.dtd"
   xmlns:inkscape="http://www.inkscape.org/namespaces/inkscape"
   version="1.1"
   width="500"
   height="500"
   viewBox="0 0 499.99999 499.99999"
   id="svg1680"
   sodipodi:docname="tukino1.svg"
   inkscape:version="1.0.2-2 (e86c870879, 2021-01-15)">
  <metadata
     id="metadata1686">
    <rdf:RDF>
      <cc:Work
         rdf:about="">
        <dc:format>image/svg+xml</dc:format>
        <dc:type
           rdf:resource="http://purl.org/dc/dcmitype/StillImage" />
        <dc:title></dc:title>
      </cc:Work>
    </rdf:RDF>
  </metadata>
  <defs
     id="defs1684" />
  <sodipodi:namedview
     pagecolor="#ffffff"
     bordercolor="#666666"
     borderopacity="1"
     objecttolerance="10"
     gridtolerance="10"
     guidetolerance="10"
     inkscape:pageopacity="0"
     inkscape:pageshadow="2"
     inkscape:window-width="1920"
     inkscape:window-height="1046"
     id="namedview1682"
     showgrid="false"
     fit-margin-top="0"
     fit-margin-left="0"
     fit-margin-right="0"
     fit-margin-bottom="0"
     inkscape:zoom="0.4665841"
     inkscape:cx="541.18156"
     inkscape:cy="484.05728"
     inkscape:window-x="-11"
     inkscape:window-y="-11"
     inkscape:window-maximized="1"
     inkscape:current-layer="svg1680" />
  <g
     transform="matrix(1.5345339,0,0,1.5345339,-118.28815,-26.216115)"
     id="g1678">
    <g
       data-paper-data="{&quot;isPaintingLayer&quot;:true}"
       fill-rule="nonzero"
       stroke-linecap="butt"
       stroke-linejoin="miter"
       stroke-miterlimit="10"
       stroke-dasharray="none"
       stroke-dashoffset="0"
       style="mix-blend-mode:normal"
       id="g1676">
      <path
         d="m 77.08409,180.00001 c 0,-89.97598 72.93994,-162.91592 162.91592,-162.91592 89.97598,0 162.91592,72.93994 162.91592,162.91592 0,89.97598 -72.93994,162.91592 -162.91592,162.91592 -89.97598,0 -162.91592,-72.93994 -162.91592,-162.91592 z"
         data-paper-data="{&quot;index&quot;:null}"
         fill="#ff789f"
         stroke="none"
         stroke-width="0"
         id="path1580" />
      <path
         d="m 317.38465,140.15502 c 0,8.62779 -5.56682,15.62199 -12.43383,15.62199 -6.86701,0 -12.43384,-6.9942 -12.43384,-15.62199 0,-8.62779 5.56682,-15.62199 12.43384,-15.62199 6.86701,0 12.43383,6.9942 12.43383,15.62199 z"
         data-paper-data="{&quot;index&quot;:null}"
         fill="#060606"
         stroke="none"
         stroke-width="0"
         id="path1582" />
      <path
         d="m 304.11393,138.75688 c 0,7.74848 30.32507,45.7251 48.03779,76.20721 10.97352,18.88451 15.68612,54.95524 15.68612,54.95524 0,0 -27.1334,-31.04139 -44.36281,-42.22917 -16.51898,-10.72646 -21.84681,-20.15002 -22.42893,-17.78559 -0.0572,1.67501 -1.33823,8.70081 -2.43721,13.03946 -2.58857,10.21934 -9.6895,13.58179 -9.6895,13.58179 0,0 4.0108,-10.00744 2.82128,-7.67859 -1.87311,3.66716 -9.14685,14.16254 -9.14685,14.16254 0,0 5.95618,-21.95621 4.49035,-45.42801 -0.13095,-2.09696 -36.8532,1.51294 -58.27956,7.38504 -7.60681,3.24477 -13.19574,11.91317 -13.19574,11.91317 0,0 -3.47246,1.3493 -2.61042,10.79325 0.72682,7.96251 -2.20473,16.69265 -2.20473,16.69265 0,0 0.0516,-6.41073 -4.09218,-9.46629 -3.25247,-2.39829 -7.75155,-12.63799 -7.75155,-12.63799 0,0 0.27758,2.51284 -0.16735,4.44385 -0.54633,2.37114 -2.86935,8.73565 -2.86935,8.73565 l -1.81706,-5.31992 -5.64807,8.15258 -1.832,-1.66242 -10.89542,4.62119 c 0,0 11.13755,-40.14497 11.9803,-45.35185 1.13569,-7.0169 6.42126,-20.30051 6.42126,-20.30051 0,0 29.0781,11.76084 55.26306,-4.00554 29.34748,-17.67059 56.64144,-75.85791 56.64144,-75.85791 0,0 -1.9129,13.98743 -1.9129,43.04019 z"
         data-paper-data="{&quot;index&quot;:null}"
         fill="#181414"
         stroke="none"
         stroke-width="0"
         id="path1584" />
      <path
         d="m 285.65251,182.29727 c 0,0 -7.34702,8.18182 -11.36364,8.18182 -4.01662,0 -4.09091,-0.82741 -4.09091,-4.09091 0,-3.2635 -4.47116,-5.90909 -0.45455,-5.90909 1.86315,0 5.42091,0.39121 8.70028,0.8107 3.79036,0.48486 7.20881,1.00748 7.20881,1.00748 z"
         data-paper-data="{&quot;index&quot;:null}"
         fill="#d6d6d6"
         stroke="none"
         stroke-width="0"
         id="path1586" />
      <g
         data-paper-data="{&quot;index&quot;:null}"
         stroke="none"
         stroke-width="0"
         id="g1600">
        <path
           d="m 225.39404,280.11451 19.1661,-17.12914 c 0,0 1.95504,11.13703 -3.27342,23.92646 -8.93418,21.85404 -27.32399,49.45269 -28.89267,49.45269 -3.86599,0 -3,-15.75252 -3,-30.25 0,-7.8056 -5.99711,-22.32332 -3.08311,-32.21631 2.49822,-8.48143 9.79861,-9.03369 11.58311,-9.03369 3.86599,0 7.5,15.25 7.5,15.25 z"
           fill="#e3cb94"
           id="path1588" />
        <path
           d="m 221.41294,297.2611 c 4.05862,0.14386 20.31973,-18.33796 20.31973,-18.33796 l -1.31973,2.71296 c 0,0 -13,17.82881 -20,16.625 -4.45739,-0.76655 -10.63071,-21.125 -9.25,-21.125 0.31378,0 1.00704,-0.0746 1.00704,-0.0746 0,0 5.03121,20.05034 9.24296,20.19962 z"
           fill="#d9d3c7"
           id="path1590" />
        <path
           d="m 225.39404,280.61451 14.25,-13.75 c 0,0 6.0984,1.90246 3.0874,6.57281 -3.87732,6.01408 -12.16202,14.75453 -17.22891,18.2138 -1.54378,1.05397 -2.84055,0.29807 -4.35849,-0.0366 -2.84291,-0.62682 -7.10384,-12.02573 -6.54737,-19.7332 0.26168,-3.6245 4.11998,-7.0168 5.04737,-7.0168 2.8995,0 5.75,15.75 5.75,15.75 z"
           fill="#d9bd7b"
           id="path1592" />
        <path
           d="m 225.41294,278.88608 c 0.69036,0 -0.75,4.79454 -1.25,7.375 -0.53843,2.77878 -1.55964,5.875 -2.25,5.875 -0.69036,0 1,-3.54454 1,-6.375 0,-2.83046 1.80964,-6.875 2.5,-6.875 z"
           fill="#cab073"
           id="path1594" />
        <path
           d="m 221.41294,267.8861 c 0.69036,0 -1.75,4.79454 -2.25,7.375 -0.32176,1.66057 -1.42305,6.3809 -2.2034,7.89896 -0.52548,1.02224 -0.76879,-0.77396 -1.0466,-0.77396 -0.69036,0 2,-4.79454 2,-7.625 0,-2.83046 2.80964,-6.875 3.5,-6.875 z"
           fill="#cab073"
           id="path1596" />
        <path
           d="m 237.66294,268.8861 c 0.69036,0 -1.75,4.79454 -2.25,7.375 -0.32176,1.66058 -1.42305,6.3809 -2.2034,7.89896 -0.52547,1.02224 -0.76879,-0.77396 -1.0466,-0.77396 -0.69036,0 2,-4.79454 2,-7.625 0,-2.83046 2.80964,-6.875 3.5,-6.875 z"
           fill="#cab073"
           id="path1598" />
      </g>
      <path
         d="m 354.56765,236.85756 18.05542,37.39719 c 0,0 -22.11199,35.23445 -52.65155,48.60882 -9.24368,3.99385 -33.17197,14.8344 -48.33612,17.51625 -30.61729,5.41481 -58.73441,0.1444 -58.73441,0.1444 0,0 54.16666,-46.42552 54.16666,-74.5 0,-28.07448 28.66666,-60 28.66666,-60 0,0 23.75479,14.45288 33.61275,20.36765 7.60832,4.565 25.22059,10.46569 25.22059,10.46569 z"
         data-paper-data="{&quot;index&quot;:null}"
         fill="#3d414d"
         stroke="none"
         stroke-width="0"
         id="path1602" />
      <path
         d="m 189.56764,282.02423 c 0,19.32997 23.5,60.5 23.5,60.5 0,0 -46.97439,-14.78836 -64.56357,-27.24173 -17.12622,-12.12559 -17.10309,-14.92494 -17.10309,-14.92494 l 27.33333,-54.16666 c 0,0 10.88472,-2.13528 18.57362,-6.3958 7.36519,-4.08115 26.63045,-18.65241 26.63045,-18.65241 0,0 -14.37073,50.42939 -14.37073,60.88154 z"
         data-paper-data="{&quot;index&quot;:null}"
         fill="#3d414d"
         stroke="none"
         stroke-width="0"
         id="path1604" />
      <path
         d="m 276.89402,194.72909 c 0,13.39291 -7.06624,27.25 -18.25,27.25 -5.15718,0 -29.86932,1.11147 -29.86932,1.11147 0,0 3.87116,-9.15746 4.62364,-13.24224 0.56815,-3.08416 -0.50432,-9.11922 -0.50432,-9.11922 0,0 16.81966,-10.271 24.28265,-17.47516 6.91126,-6.67156 16.96735,-21.27484 16.96735,-21.27484 0,0 -1.77895,10.16161 -0.45582,21.63901 0.42503,3.68689 3.20582,7.85477 3.20582,11.11099 z"
         data-paper-data="{&quot;index&quot;:null}"
         fill="#d9bbb0"
         stroke="none"
         stroke-width="0"
         id="path1606" />
      <path
         d="m 282.06665,198.58516 c 0,0 1.08691,18.17102 -10.01525,34.53946 -15.61176,23.01717 -38.60141,48.20903 -46.81708,48.20903 -4.73622,0 -7.32324,-15.52092 -10.73287,-31.35487 -1.41884,-6.58891 -6.63348,-14.734 -7.49531,-20.74831 -0.86838,-6.06007 3.28808,-9.29779 3.28808,-9.29779 0,0 7.79161,-11.12692 12.05262,-13.84014 4.20723,-2.67896 9.75864,1.79376 10.558,4.15187 0.70352,2.07538 8.20221,4.3256 8.20221,4.3256 z"
         data-paper-data="{&quot;index&quot;:null}"
         fill="#dedede"
         stroke="none"
         stroke-width="0"
         id="path1608" />
      <g
         data-paper-data="{&quot;index&quot;:null}"
         stroke="none"
         stroke-width="0"
         id="g1618">
        <path
           d="m 250.06764,262.0621 c 5.45391,-10.23747 16.11362,-23.2682 22.10943,-33.49028 10.06214,-17.15464 14.55724,-29.42638 14.55724,-29.42638 0,0 2.34957,1.6054 7.16019,5.16977 4.71103,3.49058 11.72468,49.0455 11.72468,49.0455 l -27.83643,18.24916 c 0,0 8.19807,2.2574 10.80255,3.91212 2.85613,1.8146 5.64901,6.54013 5.64901,6.54013 0,0 -21.14141,9.43466 -33.24653,18.03879 -8.9871,6.38789 -20.06423,22.21056 -31.21774,31.51841 -7.98194,6.66109 -18.03573,8.35947 -18.03573,8.35947 0,0 26.66666,-56.01731 38.33334,-77.91666 z"
           fill="#35487c"
           id="path1610" />
        <path
           d="m 212.06764,298.27423 c 0,15.87818 2.08334,42.08333 2.08334,42.08333 0,0 -20.61901,-14.38133 -21.25001,-32.08333 -0.60453,-16.95959 -17.30158,-33.87943 -17.30158,-33.87943 l 18.28501,-11.52407 -13.63398,-11.96489 c 0,0 3.87604,-7.58721 10.22587,-15.66757 7.23266,-9.20379 27.84135,-25.71404 27.84135,-25.71404 0,0 -10.53795,15.107 -11.15178,31.70112 -0.81547,22.04517 4.90178,47.98977 4.90178,57.04887 z"
           fill="#35487c"
           id="path1612" />
        <path
           d="m 293.94265,282.4409 c 0,0 -16.52493,4.89454 -32.47185,16.83379 -12.40916,9.29057 -23.70974,25.19856 -31.50138,31.19597 -11.3882,8.76576 -16.66964,8.79928 -16.66964,8.79928 l 1.0976,-1.4333 c 0,0 11.90083,-6.23809 15.13283,-9.73107 12.5843,-13.60046 31.65459,-31.39717 38.55627,-35.78004 3.8503,-2.44511 23.47757,-11.02893 23.47757,-11.02893 0,0 -2.62009,-3.7089 -3.80032,-4.32978 -5.56152,-2.92571 -13.80325,-5.04676 -13.61276,-5.04676 0.58203,0 28.15281,-19.75104 28.15281,-19.75104 l -9.47449,-48.78141 4.1856,4.25859 8.52054,45.7019 -27.32197,18.05113 c 0,0 8.17261,2.23335 10.96512,4.19365 2.3865,1.67529 4.76404,6.84802 4.76404,6.84802 z"
           fill="#c8cbd7"
           id="path1614" />
        <path
           d="m 196.50423,316.20637 c 0,2.97423 16.17971,22.48399 16.17971,22.48399 l -0.95243,0.9251 c 0,0 -18.4091,-18.77826 -18.4091,-25.68182 0,-3.13552 2.11153,-4.72976 -2.03398,-13.47504 -3.02963,-6.39124 -8.4305,-15.40721 -12.19803,-21.49177 -2.42761,-3.92059 -3.29731,-4.08744 -3.29731,-4.08744 0,0 6.67615,-4.48776 9.78467,-6.48102 2.66222,-1.70708 7.73589,-4.7536 7.73589,-4.7536 l -13.65533,-12.73139 c 0,0 9.14714,-13.88167 15.05193,-20.26035 6.69852,-7.23612 23.05914,-20.90936 23.05914,-20.90936 l -2.32471,3.58894 c 0,0 -16.74995,14.33736 -19.97376,18.06382 -5.30148,6.12807 -13.02993,19.18399 -13.02993,19.18399 0,0 7.67916,6.65838 8.51491,7.37708 1.44008,1.23836 5.06888,5.89772 5.06888,5.89772 0,0 -6.28225,3.61602 -9.10031,5.78348 -2.61771,2.01335 -7.25136,6.79309 -7.25136,6.79309 0,0 12.28553,17.22971 14.89017,22.85291 3.18848,6.88366 1.94095,14.62536 1.94095,16.92167 z"
           fill="#c8cbd7"
           id="path1616" />
      </g>
      <path
         d="m 241.22329,214.38591 2.3344,0.31107 c 0,0 -2.9906,10.16555 -5.36724,19.77601 -1.56704,6.33662 -2.86716,12.43193 -2.86716,15.21292 0,14.41463 -7.70426,30.1 -10.3,30.1 -2.59574,0 2.1,-14.88537 2.1,-29.3 0,-14.41463 14.1,-36.1 14.1,-36.1 z"
         data-paper-data="{&quot;index&quot;:null}"
         fill="#d4d4d4"
         stroke="none"
         stroke-width="0"
         id="path1620" />
      <path
         d="m 242.32329,222.41924 c 0,1.41753 -1.47746,2.56667 -3.3,2.56667 -1.82254,0 -3.3,-1.14914 -3.3,-2.56667 0,-1.41753 1.47746,-2.56667 3.3,-2.56667 1.82254,0 3.3,1.14914 3.3,2.56667 z"
         data-paper-data="{&quot;index&quot;:null}"
         fill="none"
         stroke="#acacac"
         stroke-width="0.5"
         id="path1622" />
      <path
         d="m 287.47069,201.74172 c 0,0 -7.65673,13.81041 -13.36907,21.026 -5.80143,7.32813 -21.17638,22.61036 -21.17638,22.61036 0,0 -1.96949,-11.43305 -3.90772,-16.35316 -1.42475,-3.61666 -3.23613,-7.40909 -5.07913,-10.20965 -0.44055,-0.66946 -2.83133,-3.43719 -2.83133,-3.43719 0,0 0.72173,-4.65363 7.05979,-9.55419 7.97814,-6.16866 37.03112,-24.53672 37.03112,-24.53672 0,0 2.58966,6.94327 2.97118,10.37694 0.37598,3.38378 -0.69845,10.07761 -0.69845,10.07761 z"
         data-paper-data="{&quot;index&quot;:null}"
         fill="#e7e7e7"
         stroke="none"
         stroke-width="0"
         id="path1624" />
      <path
         d="m 236.10337,209.48161 c 2.55883,2.26932 4.5342,3.83941 4.68273,5.84027 0.0551,0.74261 -9.51817,15.77386 -9.51817,15.77386 0,0 -4.10752,-2.51322 -9.14836,-1.29658 -7.65948,1.84867 -9.04931,-7.91617 -9.04931,-7.91617 0,0 3.64573,-9.89401 5.18708,-12.23619 2.70909,-4.11664 15.13262,-9.59422 15.13262,-9.59422 0,0 0.15458,7.15972 2.71341,9.42904 z"
         data-paper-data="{&quot;index&quot;:null}"
         fill="#e7e7e7"
         stroke="none"
         stroke-width="0"
         id="path1626" />
      <path
         d="m 232.73995,263.16924 c 0,1.41753 -1.32822,2.56667 -2.96667,2.56667 -1.63845,0 -2.96667,-1.14914 -2.96667,-2.56667 0,-1.41753 1.32822,-2.56667 2.96667,-2.56667 1.63845,0 2.96667,1.14914 2.96667,2.56667 z"
         data-paper-data="{&quot;index&quot;:null}"
         fill="none"
         stroke="#acacac"
         stroke-width="0.5"
         id="path1628" />
      <path
         d="m 287.63703,144.50554 c 0.66469,6.8811 -8.4721,16.49874 -12.43383,16.49874 -3.96173,0 0.95645,-8.15093 0.95645,-11.7165 0,-3.56556 -1.09239,-12.19472 2.86934,-12.19472 2.18036,0 8.12981,2.46167 8.60804,7.41248 z"
         data-paper-data="{&quot;index&quot;:null}"
         fill="#e2c4b8"
         stroke="none"
         stroke-width="0"
         id="path1630" />
      <path
         d="m 285.54522,114.12833 c 0,11.56041 -11.46065,51.30259 -11.46065,51.30259 0,0 -2.74567,9.1738 -9.57292,16.49093 -7.7269,8.28133 -19.87591,14.99045 -24.32562,18.19457 -1.54994,1.11606 -4.85435,0.3314 -4.85435,0.3314 0,0 -15.40278,-4.16416 -23.95943,-10.76501 -6.02203,-4.64557 -17.16786,-11.95065 -17.16786,-11.95065 0,0 -20.47047,-45.9319 -20.00087,-52.81037 2.43864,-35.71963 42.21967,-41.16071 55.86769,-41.16071 19.28046,0 55.47402,13.33177 55.47402,30.36724 z"
         data-paper-data="{&quot;index&quot;:null}"
         fill="#e2c4b8"
         stroke="none"
         stroke-width="0"
         id="path1632" />
      <path
         d="m 148.26392,127.73976 c 0.50185,-3.21433 4.32704,-42.55123 26.0419,-64.4956 58.89971,-59.52223 94.89029,-16.60412 94.89029,-16.60412 0,0 4.30059,-2.27413 9.09837,0.68727 29.35597,18.11976 29.34438,45.28861 26.62213,59.45123 -2.06639,10.75055 -6.18013,15.59203 -12.44841,25.69565 -4.23233,6.82192 -15.08231,15.82 -15.08231,15.82 l 0.92394,-4.69069 c 0,0 -1.46808,1.98014 -2.59896,2.7413 -1.26964,0.85456 -4.65088,2.13838 -4.65088,2.13838 0,0 0.37565,-1.37611 1.62452,-4.32001 0.81098,-1.91171 0.71461,-4.19433 0.71461,-4.19433 l -4.54982,4.41043 c 0,0 4.69762,-9.10129 3.94537,-18.07211 -0.72182,-8.60799 -3.85413,-15.66243 -3.82271,-14.82265 0.13472,3.601 3.00529,9.49607 3.00529,9.49607 0,0 -5.3181,0.15122 -7.38246,-1.19179 -2.31171,-1.50394 -5.82995,-7.40379 -5.82995,-7.40379 0,0 0.77004,4.91893 1.93088,6.60175 1.4375,2.08387 6.04295,4.95744 6.04295,4.95744 0,0 -7.97548,-1.34835 -11.79101,-3.91584 -3.81552,-2.56748 -7.74492,-8.20668 -7.74492,-8.20668 0,0 1.15722,4.45944 2.39126,6.07628 1.5725,2.0603 6.27687,5.28075 6.27687,5.28075 0,0 -7.25674,-0.51766 -10.04757,-1.38229 -2.89436,-0.8967 -7.01937,-6.23561 -7.01937,-6.23561 0,0 2.01941,4.14048 3.21019,5.66528 1.23077,1.576 4.05847,3.6422 4.05847,3.6422 0,0 -2.17522,0.63289 -3.33845,0.34823 -1.2736,-0.31167 -4.00208,-2.14456 -4.00208,-2.14456 l 3.9312,3.79221 c 0,0 -8.72834,2.01685 -13.18,0.0741 -4.57146,-1.99505 -12.37823,-12.183 -12.37823,-12.183 0,0 0.9832,5.77151 2.19154,8.27557 1.15284,2.38907 4.89978,6.42005 4.89978,6.42005 0,0 -4.41075,0.4986 -6.5112,-0.18769 -1.80586,-0.59004 -5.34181,-3.68508 -5.34181,-3.68508 l 4.13202,5.97511 -5.83667,-2.65684 c 0,0 -8.63026,-4.95633 -10.94472,-10.29264 -2.28316,-5.26416 -2.84941,-21.5117 -2.84941,-21.5117 0,0 1.30804,16.24591 -1.00702,21.71202 -2.67186,6.30854 -10.76224,15.14066 -10.76224,15.14066 0,0 -1.18216,-2.74254 -1.48334,-3.57029 -0.32142,-0.88338 -0.69248,-2.44786 -0.69248,-2.44786 0,0 -4.62875,12.04096 -1.7522,17.80499 1.86698,3.74104 8.37656,12.76307 12.47324,17.1071 1.81225,1.92167 3.51864,1.82893 3.51864,1.82893 0,0 -2.25602,1.08263 -4.90343,0.12979 -1.29301,-0.46537 -5.07415,-3.38478 -5.07415,-3.38478 0,0 0.50152,0.54192 2.1972,1.97987 1.69568,1.43795 5.10461,4.46261 5.10461,4.46261 0,0 -3.6927,-0.278 -5.77941,-0.84686 -2.01551,-0.54946 -6.76235,-4.78738 -6.76235,-4.78738 0,0 2.30887,3.90292 3.50174,4.66698 2.40701,1.54174 4.31443,2.85437 4.31443,2.85437 0,0 -3.65905,0.80922 -7.75934,-0.35054 -4.10029,-1.15976 -7.18878,-7.95377 -7.18878,-7.95377 0,0 1.58492,2.5225 2.6738,4.19294 3.09806,4.75267 9.43042,9.48964 9.43042,9.48964 0,0 -17.88467,-12.5394 -23.76665,-30.31369 -3.366,-10.17146 -2.35425,-21.07039 -2.35425,-21.07039 0,0 0.47702,6.72724 0.35773,8.51144 -0.11929,1.78421 -0.10253,11.48249 -0.10253,11.48249 0,0 -5.97869,-4.75542 -7.03284,-11.98479 -1.05415,-7.22938 0.002,-7.57586 0.002,-7.57586 0,0 -0.43103,8.56297 -0.96313,9.77336 -0.65766,1.49599 -7.80972,6.33452 -7.80972,6.33452 0,0 2.53803,-9.3234 3.03988,-12.53772 z"
         data-paper-data="{&quot;index&quot;:null}"
         fill="#2a1f1f"
         stroke="#000000"
         stroke-width="0"
         id="path1634" />
      <path
         d="m 183.1339,148.38859 0.80617,0.89817 c 0,0 -6.50815,-0.32885 -9.34589,-0.32885 -3.99779,0 -9.70781,0.30208 -9.70781,0.30208 l -1.83788,-2.14665 c 0,0 6.23101,0.47823 12.4566,0.47823 6.22559,0 7.62882,0.79703 7.62882,0.79703 z"
         data-paper-data="{&quot;index&quot;:null}"
         fill="#e3e3e3"
         stroke="none"
         stroke-width="0"
         id="path1636" />
      <path
         d="m 185.33099,151.96573 1.10113,0.95573 c 0,0 -4.85384,2.12644 -7.04844,3.4849 -3.09174,1.91379 -6.89622,4.68438 -6.89622,4.68438 l -1.77569,-1.47385 c 0,0 3.52319,-1.63527 8.33782,-4.61555 4.81463,-2.98028 6.28138,-3.03561 6.28138,-3.03561 z"
         data-paper-data="{&quot;index&quot;:null}"
         fill="#e75f5f"
         stroke="none"
         stroke-width="0"
         id="path1638" />
      <g
         data-paper-data="{&quot;index&quot;:null}"
         stroke="none"
         stroke-width="0"
         id="g1670">
        <path
           d="m 202.57691,260.91413 c 3.97768,-3.86632 8.68007,-9.29982 11.15808,-9.29982 3.17043,0 14.5474,-0.51006 14.5474,-0.51006 0,0 -2.81793,11.38135 -6.10365,15.24267 -3.78016,4.44238 -9.38125,11.82989 -9.38125,11.82989 0,0 -10.60386,-0.81965 -14.20358,-1.96623 -3.42259,-1.09016 -6.89017,-4.75252 -6.89017,-4.75252 0,0 5.016,-4.85074 10.87317,-10.54393 z"
           fill="#c87c7c"
           id="path1640" />
        <path
           d="m 266.39125,280.83306 c 0,0 -3.46757,3.66235 -6.89017,4.75252 -3.59972,1.14657 -15.45358,3.21623 -15.45358,3.21623 0,0 -3.60469,-13.69475 -5.94375,-19.64239 -3.46766,-8.81738 -4.8375,-20.20136 -4.8375,-20.20136 0,0 1.84184,2.03125 7.96875,2.03125 2.47801,0 15.30539,13.871 19.28308,17.73732 2.10717,8.5057 5.87317,12.10643 5.87317,12.10643 z"
           data-paper-data="{&quot;index&quot;:null}"
           fill="#ca7d7d"
           id="path1642" />
        <path
           d="m 237.00415,256.92492 c 0,1.95972 1.91386,6.61291 1.29032,6.61291 -0.62355,0 -3.06451,-4.65319 -3.06451,-6.61291 0,-1.95972 -0.48387,-4.35484 -0.48387,-4.35484 0,0 2.25807,2.39512 2.25807,4.35484 z"
           data-paper-data="{&quot;index&quot;:null}"
           fill="#be7676"
           id="path1644" />
        <path
           d="m 267.92523,246.38818 c 0,8.03323 -5.90909,25.90909 -5.90909,25.90909 0,0 -13.83605,-1.83995 -20.41313,-6.50361 -1.39435,-0.98871 -2.46518,-2.16442 -3.28695,-3.44199 -3.07068,-4.77392 -2.66357,-10.97003 -2.66357,-14.14531 0,-8.03323 8.18781,-9.54545 17.72727,-9.54545 9.53946,0 14.54545,-0.30596 14.54545,7.72727 z"
           fill="#d68484"
           id="path1646" />
        <path
           d="m 212.70353,230.47882 c 5.98371,0 14.75594,10.14135 14.75594,10.14135 0,0 -0.49875,9.2736 -2.36887,12.6796 -1.95649,1.82317 -7.18604,5.86107 -12.1442,7.69119 -5.49683,2.02895 -10.6601,1.76085 -10.6601,1.76085 0,0 -2.93708,-9.81759 -1.88834,-19.99406 1.33444,-12.9489 6.32187,-12.27893 12.30558,-12.27893 z"
           data-paper-data="{&quot;index&quot;:null}"
           fill="#d68484"
           id="path1648" />
        <path
           d="m 237.95455,243.05241 -1.86217,9.8607 c 0,0 -5.34281,0.38264 -6.7725,0.0367 -1.29375,-0.31304 -3.69671,-2.18479 -3.69671,-2.18479 l 0.68915,-9.56745 c 0,0 5.34992,-1.73062 6.92661,-1.27857 2.54319,0.72916 4.71562,3.13341 4.71562,3.13341 z"
           fill="#e99090"
           id="path1650" />
        <path
           d="m 267.32875,244.42681 c 0,2.93401 -6.71573,7.5 -15,7.5 -3.91325,0 -14.52225,-2.02502 -14.52225,-2.02502 l -1.10275,-6.72498 c 0,0 5.15323,-4.6875 13.4375,-4.6875 8.28427,0 17.1875,3.00349 17.1875,5.9375 z"
           fill="#be7575"
           id="path1652" />
        <path
           d="m 224.51625,240.05181 0.0515,5.35786 c 0,0 -7.07403,0.8022 -11.30154,-0.35786 -7.97177,-2.1875 -11.25,-7.06599 -11.25,-10 0,-2.93401 3.3956,-4.51454 11.5625,-3.125 7.34677,1.25 10.9375,8.125 10.9375,8.125 z"
           fill="#be7575"
           id="path1654" />
        <path
           d="m 225.17149,250.48024 c 0,0.25889 -2.02289,2.72681 -3.92137,2.72681 -1.89848,0 -3.92137,-1.1776 -3.92137,-1.43649 0,-0.25889 1.53902,-0.46875 3.4375,-0.46875 1.89848,0 4.40524,-1.08046 4.40524,-0.82157 z"
           fill="#cc7e7e"
           id="path1656" />
        <path
           d="m 243.24953,253.10569 c -0.11024,0.22911 -2.79851,1.47136 -4.33515,0.58742 -1.53664,-0.88394 -2.67252,-2.86798 -2.56227,-3.09708 0.11024,-0.22911 1.4453,0.30173 2.98194,1.18567 1.53664,0.88394 4.02572,1.09488 3.91548,1.32399 z"
           fill="#cc7e7e"
           id="path1658" />
        <path
           d="m 225.61188,252.2475 c 0,0 0,2.39512 0,4.35484 0,1.95972 -5.50548,4.35484 -6.12903,4.35484 -0.62354,0 3.87097,-2.39512 3.87097,-4.35484 0,-1.95972 2.25806,-4.35484 2.25806,-4.35484 z"
           fill="#be7676"
           id="path1660" />
        <path
           d="m 217.54737,272.16686 -0.95376,1.74757 c 0,0 -1.44714,-0.0955 -3.32741,-0.26007 -2.42026,-0.21187 -5.55815,-0.53827 -7.25109,-0.92298 -5.67808,-1.29032 -12.01613,-4.43548 -12.01613,-4.43548 l 2.17742,-1.04839 c 0,0 6.12038,3.45571 9.571,4.25 3.66063,0.84263 11.79997,0.66935 11.79997,0.66935 z"
           fill="#c7b8b8"
           id="path1662" />
        <path
           d="m 215.4506,274.7475 -0.95376,1.74757 c 0,0 -7.57033,-0.49946 -10.5785,-1.18306 -5.67808,-1.29032 -12.01613,-4.43548 -12.01613,-4.43548 l 2.17742,-1.04839 c 0,0 6.12038,3.45571 9.571,4.25 3.66063,0.84263 11.79997,0.66935 11.79997,0.66935 z"
           fill="#c7b8b8"
           id="path1664" />
        <path
           d="m 252.73444,280.52976 c 3.45061,-0.79429 10.21616,-4.25 10.21616,-4.25 l 0.7258,1.37097 c 0,0 -5.53159,2.82257 -11.20967,4.1129 -3.00816,0.6836 -10.41721,1.50564 -10.41721,1.50564 l -0.3086,-2.39274 c 0,0 7.33289,0.49586 10.99352,-0.34677 z"
           data-paper-data="{&quot;index&quot;:null}"
           fill="#c7b8b8"
           id="path1666" />
        <path
           d="m 254.34735,283.59427 c 3.45061,-0.79429 10.53874,-4.41129 10.53874,-4.41129 l 0.7258,1.37097 c 0,0 -5.85417,2.98386 -11.53225,4.27419 -3.00816,0.6836 -10.5785,1.18306 -10.5785,1.18306 l -0.95376,-1.74758 c 0,0 8.13934,0.17328 11.79997,-0.66935 z"
           data-paper-data="{&quot;index&quot;:null}"
           fill="#c7b8b8"
           id="path1668" />
      </g>
      <path
         d="m 299.64139,214.99147 c -0.0598,1.75128 -1.39916,9.09699 -2.54818,13.6332 -2.70644,10.68467 -10.13071,14.20023 -10.13071,14.20023 0,0 4.19343,-10.46312 2.94974,-8.02823 -1.9584,3.83414 -9.56335,14.80743 -9.56335,14.80743 l 7.82212,-51.24943 12.45732,8.06148 c 0,0 -0.39723,6.18005 -0.98694,8.57532 z"
         data-paper-data="{&quot;index&quot;:null}"
         fill="#181414"
         stroke="none"
         stroke-width="0"
         id="path1672" />
      <path
         d="m 218.73047,207.03447 c 0,0 -3.38058,13.66074 -2.47928,23.53471 0.75992,8.32508 -2.30512,17.45274 -2.30512,17.45274 0,0 0.054,-6.70264 -4.27852,-9.89733 -3.40057,-2.5075 -9.93784,-15.13012 -9.93784,-15.13012 z"
         data-paper-data="{&quot;index&quot;:null}"
         fill="#181414"
         stroke="none"
         stroke-width="0"
         id="path1674" />
    </g>
  </g>
</svg>
